<mxfile host="Electron" modified="2023-08-16T08:47:29.572Z" agent="Mozilla/5.0 (Windows NT 10.0; Win64; x64) AppleWebKit/537.36 (KHTML, like Gecko) draw.io/21.6.8 Chrome/114.0.5735.289 Electron/25.5.0 Safari/537.36" etag="_Vp861oSfGg1ki8eXMgP" version="21.6.8" type="device">
  <diagram name="Page-1" id="LR42QNS3owpCh14DlOaG">
    <mxGraphModel dx="1418" dy="820" grid="1" gridSize="10" guides="1" tooltips="1" connect="1" arrows="1" fold="1" page="1" pageScale="1" pageWidth="850" pageHeight="1100" math="0" shadow="0">
      <root>
        <mxCell id="0" />
        <mxCell id="1" parent="0" />
        <mxCell id="YXMuk0qeueRVUY0ffhsT-1" value="&lt;font style=&quot;font-size: 20px;&quot;&gt;Porssisahko.net&lt;/font&gt;" style="verticalLabelPosition=bottom;sketch=0;aspect=fixed;html=1;verticalAlign=top;strokeColor=none;align=center;outlineConnect=0;shape=mxgraph.citrix.web_server;" vertex="1" parent="1">
          <mxGeometry x="100" y="20" width="221" height="260" as="geometry" />
        </mxCell>
        <mxCell id="YXMuk0qeueRVUY0ffhsT-4" value="&lt;font style=&quot;font-size: 20px;&quot;&gt;Ilmatieteenlaitos.fi&lt;/font&gt;" style="verticalLabelPosition=bottom;sketch=0;aspect=fixed;html=1;verticalAlign=top;strokeColor=none;align=center;outlineConnect=0;shape=mxgraph.citrix.web_server;" vertex="1" parent="1">
          <mxGeometry x="560" y="30" width="221" height="260" as="geometry" />
        </mxCell>
        <mxCell id="YXMuk0qeueRVUY0ffhsT-10" value="" style="group" vertex="1" connectable="0" parent="1">
          <mxGeometry x="300" y="358" width="293.87" height="191.78999999999996" as="geometry" />
        </mxCell>
        <mxCell id="YXMuk0qeueRVUY0ffhsT-2" value="&lt;h3&gt;&lt;br&gt;&lt;/h3&gt;" style="verticalLabelPosition=bottom;sketch=0;aspect=fixed;html=1;verticalAlign=top;strokeColor=none;align=center;outlineConnect=0;shape=mxgraph.citrix.cloud;" vertex="1" parent="YXMuk0qeueRVUY0ffhsT-10">
          <mxGeometry width="293.87" height="191.79" as="geometry" />
        </mxCell>
        <mxCell id="YXMuk0qeueRVUY0ffhsT-3" value="Internet&lt;br&gt;" style="text;html=1;strokeColor=none;fillColor=none;align=center;verticalAlign=middle;whiteSpace=wrap;rounded=0;fontStyle=1;fontSize=24;" vertex="1" parent="YXMuk0qeueRVUY0ffhsT-10">
          <mxGeometry x="110" y="80.88999999999999" width="60" height="30" as="geometry" />
        </mxCell>
        <mxCell id="YXMuk0qeueRVUY0ffhsT-12" value="&lt;font style=&quot;font-size: 20px;&quot;&gt;NGINX reverse proxy&lt;/font&gt;" style="verticalLabelPosition=bottom;sketch=0;aspect=fixed;html=1;verticalAlign=top;strokeColor=none;align=center;outlineConnect=0;shape=mxgraph.citrix.web_server;" vertex="1" parent="1">
          <mxGeometry x="50" y="530" width="178.5" height="210" as="geometry" />
        </mxCell>
        <mxCell id="YXMuk0qeueRVUY0ffhsT-13" value="&lt;font style=&quot;font-size: 20px;&quot;&gt;Node.js web server&lt;/font&gt;" style="verticalLabelPosition=bottom;sketch=0;aspect=fixed;html=1;verticalAlign=top;strokeColor=none;align=center;outlineConnect=0;shape=mxgraph.citrix.web_server;" vertex="1" parent="1">
          <mxGeometry x="336" y="680" width="178.5" height="210" as="geometry" />
        </mxCell>
        <mxCell id="YXMuk0qeueRVUY0ffhsT-14" value="&lt;font style=&quot;font-size: 20px;&quot;&gt;PostgreSQL datebase server&lt;/font&gt;" style="verticalLabelPosition=bottom;sketch=0;aspect=fixed;html=1;verticalAlign=top;strokeColor=none;align=center;outlineConnect=0;shape=mxgraph.citrix.database_server;" vertex="1" parent="1">
          <mxGeometry x="640" y="540" width="168.89" height="190" as="geometry" />
        </mxCell>
        <mxCell id="YXMuk0qeueRVUY0ffhsT-15" value="" style="endArrow=none;html=1;rounded=0;" edge="1" parent="1" target="YXMuk0qeueRVUY0ffhsT-1">
          <mxGeometry width="50" height="50" relative="1" as="geometry">
            <mxPoint x="360" y="390" as="sourcePoint" />
            <mxPoint x="450" y="400" as="targetPoint" />
          </mxGeometry>
        </mxCell>
        <mxCell id="YXMuk0qeueRVUY0ffhsT-17" value="" style="endArrow=none;html=1;rounded=0;" edge="1" parent="1" target="YXMuk0qeueRVUY0ffhsT-4">
          <mxGeometry width="50" height="50" relative="1" as="geometry">
            <mxPoint x="480" y="360" as="sourcePoint" />
            <mxPoint x="530" y="310" as="targetPoint" />
          </mxGeometry>
        </mxCell>
        <mxCell id="YXMuk0qeueRVUY0ffhsT-18" value="" style="endArrow=none;html=1;rounded=0;" edge="1" parent="1" source="YXMuk0qeueRVUY0ffhsT-12">
          <mxGeometry width="50" height="50" relative="1" as="geometry">
            <mxPoint x="400" y="550" as="sourcePoint" />
            <mxPoint x="340" y="490" as="targetPoint" />
          </mxGeometry>
        </mxCell>
        <mxCell id="YXMuk0qeueRVUY0ffhsT-19" value="" style="endArrow=none;html=1;rounded=0;" edge="1" parent="1" source="YXMuk0qeueRVUY0ffhsT-12" target="YXMuk0qeueRVUY0ffhsT-13">
          <mxGeometry width="50" height="50" relative="1" as="geometry">
            <mxPoint x="400" y="550" as="sourcePoint" />
            <mxPoint x="450" y="500" as="targetPoint" />
          </mxGeometry>
        </mxCell>
        <mxCell id="YXMuk0qeueRVUY0ffhsT-20" value="" style="endArrow=none;html=1;rounded=0;" edge="1" parent="1" source="YXMuk0qeueRVUY0ffhsT-13" target="YXMuk0qeueRVUY0ffhsT-14">
          <mxGeometry width="50" height="50" relative="1" as="geometry">
            <mxPoint x="540" y="690" as="sourcePoint" />
            <mxPoint x="580" y="650" as="targetPoint" />
          </mxGeometry>
        </mxCell>
      </root>
    </mxGraphModel>
  </diagram>
</mxfile>
